<?xml version="1.0" encoding="utf-8"?>
<!-- Generator: Adobe Illustrator 21.0.0, SVG Export Plug-In . SVG Version: 6.00 Build 0)  -->
<svg version="1.1" id="Layer_1" xmlns="http://www.w3.org/2000/svg" xmlns:xlink="http://www.w3.org/1999/xlink" x="0px" y="0px"
	 viewBox="0 0 112 86.5" style="enable-background:new 0 0 112 86.5;" xml:space="preserve">
<style type="text/css">
	.st0{clip-path:url(#SVGID_2_);}
	.st1{clip-path:url(#SVGID_4_);}
	.st2{clip-path:url(#SVGID_6_);}
	.st3{fill:#DCDCDC;}
</style>
<g>
	<defs>
		<rect id="SVGID_1_" width="749.9" height="394.8"/>
	</defs>
	<clipPath id="SVGID_2_">
		<use xlink:href="#SVGID_1_"  style="overflow:visible;"/>
	</clipPath>
	<g class="st0">
		<defs>
			<rect id="SVGID_3_" width="749.9" height="394.8"/>
		</defs>
		<clipPath id="SVGID_4_">
			<use xlink:href="#SVGID_3_"  style="overflow:visible;"/>
		</clipPath>
		<g class="st1">
			<g>
				<defs>
					<rect id="SVGID_5_" width="749.9" height="394.8"/>
				</defs>
				<clipPath id="SVGID_6_">
					<use xlink:href="#SVGID_5_"  style="overflow:visible;"/>
				</clipPath>
				<g class="st2">
					<path class="st3" d="M27.2,42.8c1.6-0.3,2.2-0.3,3.5-0.3c9.6,0,17.6,9.3,17.6,20.5c0,12.8-9.9,23-22.4,23
						c-14.7,0-25.3-12.8-25.3-30.7c0-11.2,4.5-22.7,12.1-32.9C19.2,14,29.8,5.7,39.7,0.3l8.9,14.1C36.2,20.4,28.8,30.3,27.2,42.8z
						 M90.2,42.8c1.6-0.3,2.2-0.3,3.5-0.3c9.6,0,17.6,9.3,17.6,20.5c0,12.8-9.9,23-22.4,23c-14.7,0-25.3-12.8-25.3-30.7
						c0-11.2,4.5-22.7,12.1-32.9C82.2,14,92.7,5.7,102.6,0.3l8.9,14.1C99.1,20.4,91.8,30.3,90.2,42.8z"/>
				</g>
			</g>
		</g>
	</g>
</g>
</svg>
