<svg id="Layer_4" data-name="Layer 4" width="2000" height="600" xmlns="http://www.w3.org/2000/svg" viewBox="0 0 1379.69 414.81"><defs><style>.cls-1{fill:#e9ecef;}.cls-2{fill:none;stroke:#fff;stroke-miterlimit:10;}</style></defs><title>Artboard 10</title><rect class="cls-1" x="-111.87" y="-69.13" width="1537.01" height="551.75"/><path class="cls-2" d="M-2.38,39.5a77.8,77.8,0,0,1,46.81,23c1.27-6.8,1.46-18.2,10.34-19.39,60.71.14,122.71.14,183.71.14,0-8.84-16.76,0,0,0V.24c-80,0-159,0-239.17-.24"/><path class="cls-2" d="M-7.56,43.2v7.94c0,6.45-10,6.44-10,0V43.41q-3,.29-6,.79C-24.74,54.83-26.32,65.44-28,76a76.66,76.66,0,0,1,11.22,40,76.89,76.89,0,0,1-27.25,58.78q-.41,2.9-.79,5.81A72.65,72.65,0,0,0-10.92,189a72.62,72.62,0,0,0,32.67-7.71L43.48,67.45A72.9,72.9,0,0,0-7.56,43.2Z"/><path class="cls-2" d="M-10.92,193.11A76.7,76.7,0,0,1-45.42,185q-1,8-1.82,16L6,235.31c3.37,2.28,5.21,2.37,5.88-2.08l9-46.93A76.84,76.84,0,0,1-10.92,193.11Z"/><path class="cls-2" d="M83.77,307.32c-32,38.23-79.7,43-122.48,22.16l-5.34-3-8.9-5.66q-.15,9.63-.42,19.24l43.59,23.48h52l21.2,21.21H165.94V295.62C142,311.73,112.61,316.93,83.77,307.32Z"/><path class="cls-2" d="M577.06,336.77l-151.7,30c-35.28,7-69-13.81-86.34-43-35.37,23.77-83.22,16.29-110.23-17.63l-44.32-52.24a73,73,0,0,1-9.38,11.88c-24.87,28-62.62,38-96.53,21.28C52.49,326.83,8.61,333.93-31.71,314.3l-4.53-2.52-16.52-10.54c0,1,0,1.95,0,2.92,0,4-.07,7.93-.12,11.9L-42,323l5.14,2.86C6,346.53,51,341,82.42,302.54c39.18,13.71,75.38,1,102.43-29.22L220,314.69c28.68,35.84,75.07,45.19,115.28,25.89,22.8,30.88,59,45.39,96.61,37.95l142.77-28.24,30.75,21.32,9-9Z"/><path class="cls-2" d="M580.41,318.9l-158,31.24c-28.32,5.6-55.91-11.67-69.73-35L343,298.76a66.82,66.82,0,0,1-102.18-3.7l-58.9-69.44c-5.32,9.57-10.24,20.37-18.11,28.31-24.17,27.44-62.19,33.07-91,9.83-18.09,42-57.6,54.7-97.55,35.35l-3.71-2.06-24.31-15.54q0,7.46,0,14.9l18.6,11.86,4.32,2.41c40.63,19.55,81.6,11.34,107-28.93,33.51,17.53,69.65,9.81,95-18.69a76.69,76.69,0,0,0,11.81-16.13l48,56.62c26.19,32.94,72.86,39.66,106.56,15.66l1.8-1.28,4.63,7.79c17.25,29,51.71,42.57,84,36.18l149-29.48,39.32,27.27,9-9Z"/><path class="cls-2" d="M590.47,265.3l-176.75,35c-5.34,1.05-15.68-3.8-18.51-8.56l-54.34-91.52-27.93,57c-6.51,14.11-26.43,18-36,4.82L173.84,140.38,132,215.58l-.19-.11-.43.62c-11.07,15.79-28.72,15.4-37.14-2.44a23.14,23.14,0,0,1-1-2.36L57.7,99.62,31.49,237.05a45.9,45.9,0,0,1-3,7.72C22.73,256.07,15.87,259.21,3.63,256a53,53,0,0,1-8.18-2.88l-48.67-31.39q.09,7.6.16,15.21l42.3,27.1L-9,265c25.63,11.85,44.66,2.08,52-24.86l16.23-84.91,3.95-.23,19,60.51A32,32,0,0,0,83.52,219c11,24,37.09,29.26,54.79,8.17a19.59,19.59,0,0,0,3.85-5l33.66-60.55L268,270.35c15.22,20,45,14.86,55.41-7.27l18.42-37.57,43.42,73.13c5.47,9.22,20.62,16.2,30.57,14.24L588,278.83l80.05,55.49v26.91a122.09,122.09,0,0,1,15-8.88V329.53Z"/><path class="cls-2" d="M587.12,283.17,416.63,316.88c-11.74,2.33-28.57-5.54-34.87-16.16l-39.57-66.64-15.07,30.75C315.47,289.65,282,295.29,264.87,273L176.52,168.79l-30.8,55.39a23.13,23.13,0,0,1-4.46,5.8c-19.64,23.27-49.32,17.23-61.45-9.3a36.9,36.9,0,0,1-1.57-3.91L61.66,164,46.93,241.09a66.78,66.78,0,0,1-4.48,11.69c-11.54,22.83-31.76,26.11-53.33,15.89l-2-1.09L-53,241.85q.06,7.5.13,15l34.33,22,2.64,1.46c35.5,16.77,64.94.51,74.3-36.1l5.4-30.55s3.88,9.39,5.43,12.76c15.54,34,54.68,42.41,80.3,12.81a36.61,36.61,0,0,0,6.33-8.39l22.65-40.73L256,281.37c22.69,29.18,66.05,22.16,81.59-10.48l5.63-11.48,28.65,48.26c10.45,17.6,32.24,24.74,51.29,21l161.56-31.95,63.6,44.1v37.52A123.14,123.14,0,0,1,664,364.18V336.46Z"/><path class="cls-2" d="M644.32,382.74l-.13-39.82L583.76,301,419.54,333.51c-21.68,4.29-42.92-9.76-53.37-27.36L343.51,268l-2.29,4.67C324.41,308,277.38,315.45,252.81,284L179.2,197.21c0,.06-17.45,35.67-26.71,44.77-27.69,31.93-70.31,22.54-87.07-14.09l-3,17.14s-.66,2.64-1.67,5.58c-12.6,36.66-43.42,50.15-78.5,33.29l-2.86-1.58-32.21-20.61q.06,7.47.09,15l26.41,16.88,3.5,1.94c39.35,18.81,76.47,5.54,93-35.84L71.18,257c10.69,9.37,21,15.22,35.5,16.87,21.43,2.44,40.58-7.31,54.1-22.69,8.28-8.32,15.37-23.62,20.4-32.66l62.74,74c25.19,32,72,32.06,97.81,1.54l1.85-2.19,12.65,21.31c15,25.25,40.68,37.93,69.79,32.17l155.3-30.71L632,349.72v50.34A122.14,122.14,0,0,1,644.32,382.74Z"/><path class="cls-2" d="M409.4,283.91,344.14,174c-2.66-4.47-6.24-4.35-8.56.39l-36.69,74.84c-1.27,3.86-7,5.28-9.62,2l-113.63-134a5.53,5.53,0,0,0-3.33-2.1,3.51,3.51,0,0,0-.71,0c-1.44.09-2.81,1.09-3.87,3l-49.35,88.76c-2.35,5.23-8.3,4.94-9.88-.53L60,52.06c-2.15-6.83-8.2-6.57-9.58.65L15.88,233.88a14.37,14.37,0,0,1-.68,2.54c-2.21,5.9-7.08,5.21-11.46,2.3l-51.41-33.15c-.22,2.51-.44,5-.62,7.54A5,5,0,0,1-52,217.68l49.45,31.89c1.32.6,13,5.61,19.26,2.63,7-3.31,10.53-15,10.83-16.09L55.19,91l4-.24L97.18,210c.21.62,4.38,12.18,14.58,13.34s17.41-11.31,17.58-11.61l43.79-78.53L280.2,259.46c7.69,10.75,23.8,7.33,29.05-4l31.28-63.82,58.19,98c2,3.36,10.66,7.34,14.21,6.64L546,269.93v-13Z"/><path class="cls-2" d="M179.22,115.15,292.44,248.68A1.8,1.8,0,0,0,295,248c.17-.45,36.93-75.44,36.93-75.44,1.94-4,4.94-6,8-6h42.3l51.49-51.49Z"/><path class="cls-2" d="M324.88,429.6c3.75.1,7.5.16,11.25.21a239.84,239.84,0,0,0-69.1-53.9v52.41C286.32,427.57,305.6,429.09,324.88,429.6Z"/><path class="cls-2" d="M341.6,429.87c16.32.12,32.65-.1,49,0,15.59.14,31.13.62,46.65,1.27V381.62l-8.95,1.77c-34,6.73-72.44-9.16-94.3-37.69-40.82,18.71-88.62,7.21-117.14-28.39l-32.06-37.8A110.88,110.88,0,0,1,170,292.73v52.75A242.47,242.47,0,0,1,341.6,429.87Z"/><rect class="cls-2" x="-7.21" y="367.65" width="46.78" height="34.37"/><polygon class="cls-2" points="70.4 397.48 70.08 397.48 70.08 397.17 43.66 370.74 43.66 402.03 74.94 402.03 70.4 397.48"/><rect class="cls-2" x="-7.21" y="406.11" width="173.15" height="11.37"/><polygon class="cls-2" points="165.94 397.48 76.17 397.48 80.71 402.03 165.94 402.03 165.94 397.48"/><polygon class="cls-2" points="165.94 388.86 67.55 388.86 72.09 393.4 165.94 393.4 165.94 388.86"/><rect class="cls-2" x="242.18" width="6.15" height="111.07"/><rect class="cls-2" x="252.42" width="6.15" height="111.07"/><rect class="cls-2" x="262.66" width="6.15" height="111.07"/><path class="cls-2" d="M164.16,116.14c2-3.63,5.19-5.37,8.39-5.07H238.1v-64H62.17a14.17,14.17,0,0,1,1.75,3.73l48.49,154.33c.55,2.13,1.64,1.52,2.3-.08Z"/><path class="cls-2" d="M170,349.57V435c22.7-.91,45.53-.62,68-4.14a5.23,5.23,0,0,1,2.67.24,180.09,180.09,0,0,1,22.21-2.61V373.84A237.64,237.64,0,0,0,170,349.57Z"/><polygon class="cls-2" points="500.85 0 460.95 0 349.88 111.07 389.77 111.07 500.85 0"/><polygon class="cls-2" points="548.85 0 506.62 0 395.55 111.07 437.77 111.07 548.85 0"/><path class="cls-2" d="M619.31,166a36.39,36.39,0,0,1-32-22,32.3,32.3,0,1,0,32,22Z"/><path class="cls-2" d="M620.73,97.32A32.31,32.31,0,1,0,653,129.63,32.31,32.31,0,0,0,620.73,97.32Z"/><path class="cls-2" d="M618.05,46.43a32.31,32.31,0,0,0-21.74,56.21,36.43,36.43,0,0,1,45.87-2.42,32.31,32.31,0,0,0-24.13-53.79Z"/><path class="cls-2" d="M640.63,0H607.47a32.32,32.32,0,0,0-8.7,47.86A36.4,36.4,0,0,1,644,53.18,32.31,32.31,0,0,0,640.63,0Z"/><path class="cls-2" d="M657.05,132a36.4,36.4,0,0,1-33.48,33.94A36.4,36.4,0,1,1,585.84,140a37,37,0,0,1-1.43-8.06H535.93l-91.42,91.41H636L727.37,132Z"/><polygon class="cls-2" points="532.24 129.88 478.49 76.13 387.98 166.64 495.48 166.64 532.24 129.88"/><rect class="cls-2" x="441.3" y="227.47" width="193.46" height="6.1"/><polygon class="cls-2" points="531.08 255.68 546.01 252.73 546.01 237.65 531.08 237.65 531.08 255.68"/><polygon class="cls-2" points="441.3 273.44 527 256.49 527 237.65 441.3 237.65 441.3 273.44"/><path class="cls-2" d="M571.84,437.08V407.22l-40.76-40.76v69.47C544.66,436.48,558.25,436.82,571.84,437.08Z"/><path class="cls-2" d="M522.19,435.53l4.81.22V363.87l-85.7,16.95v50.53C468.26,432.54,495.17,434.22,522.19,435.53Z"/><polygon class="cls-2" points="602.43 374.55 573.7 354.63 533.07 362.67 573.68 403.29 602.43 374.55"/><path class="cls-2" d="M617.69,437.85a121.33,121.33,0,0,1,10.25-30.22V354.8l-52,52v30.33C589.85,437.4,603.77,437.58,617.69,437.85Z"/><path class="cls-2" d="M635,438.23a105.07,105.07,0,0,1,205.78,4.62l13.06-.14a118,118,0,0,0-232-4.78Q628.43,438.06,635,438.23Z"/><path class="cls-2" d="M656.87,438.94l13.07.53a71,71,0,0,1,136,3.55l13.29,0a83.94,83.94,0,0,0-162.63-4.06Z"/><path class="cls-2" d="M652.39,438.77A88.05,88.05,0,0,1,823.45,443q6.59,0,13.16-.1a101,101,0,0,0-197.43-4.54Q645.8,438.54,652.39,438.77Z"/><polygon class="cls-2" points="872.17 0 743.62 0 786.65 43.03 872.17 43.03 872.17 0"/><path class="cls-2" d="M892.24,442.13V0h-16V442.4Z"/><path class="cls-2" d="M952.61,440.87c33-.75,66-1.51,99.07-2a70.32,70.32,0,0,0-63.94-41H953.33q-.75,8.52-.76,17.24c0,1.29,0,2.59,0,3.88Z"/><path class="cls-2" d="M790.56,443l11.11,0a66.93,66.93,0,0,0-127.48-3.38C713,441.23,751.75,442.83,790.56,443Z"/><path class="cls-2" d="M872.17,442.46V397.83H841.45A121.17,121.17,0,0,1,858,442.67Q865.08,442.58,872.17,442.46Z"/><polygon class="cls-2" points="455.17 0 272.89 0 272.89 111.07 344.1 111.07 455.17 0"/><path class="cls-2" d="M346.87,170.73c.27.37.53.76.78,1.18l63.78,107.43,25.78-5.1V224.91l54.19-54.18Z"/><path class="cls-2" d="M600.48,0H554.62L481.38,73.24,536,127.89h48.35a36.22,36.22,0,0,1,9.06-22.34,36.41,36.41,0,0,1,2-55.33A36.41,36.41,0,0,1,600.48,0Z"/><polygon class="cls-2" points="628.58 286.75 634.76 291.04 634.76 237.65 628.58 237.65 628.58 286.75"/><polygon class="cls-2" points="550.09 269.12 591.38 260.96 624.5 283.92 624.5 237.65 550.09 237.65 550.09 269.12"/><path class="cls-2" d="M687.18,350.41A124.24,124.24,0,0,1,699,345.79l0-22.41c0-2.25-.35-3-2.37-4.64l-57.83-40.09v15.22l48.35,33.52Z"/><path class="cls-2" d="M737.84,0H647.61a36.39,36.39,0,0,1-1,56.25,36.39,36.39,0,0,1-1.32,46.56,36.34,36.34,0,0,1,11.74,25.08h77.76V230h24.72l-3.11-35.47,26.34-2.3,2.9-13.65L770,183l-17.61-61.39L813.82,104l14,48.66,27.44,5.84L842,221l-19.44-4.14L823.66,230h48.51v-96l-.19.2Z"/><rect class="cls-2" x="700.36" y="39.27" width="63.86" height="63.85" transform="translate(294.24 662.32) rotate(-59.01)"/><polygon class="cls-2" points="763.14 73.9 734.4 68.3 728.03 101.12 741.82 109.41 763.14 73.9"/><polygon class="cls-2" points="724.3 98.88 731.17 63.52 765.38 70.17 770.49 61.67 722.76 32.98 694.09 80.72 724.3 98.88"/><rect class="cls-2" x="789.51" y="155.28" width="55.69" height="55.69" transform="translate(468.2 944.51) rotate(-77.99)"/><polygon class="cls-2" points="759.03 129.83 778.45 133.61 781.57 117.53 757.48 124.43 759.03 129.83"/><polygon class="cls-2" points="785.97 116.27 781.68 138.4 760.3 134.24 772.84 177.97 786.65 174.01 792.76 145.25 823.26 151.74 811.02 109.09 785.97 116.27"/><polygon class="cls-2" points="780.79 283.25 791.35 286.68 796.58 270.56 784.69 267.59 780.79 283.25"/><polygon class="cls-2" points="800.55 271.55 793.97 291.82 779.8 287.22 776.01 302.43 833.46 302.43 838.73 281.07 800.55 271.55"/><polygon class="cls-2" points="803.12 250.41 808.55 233.71 762.68 218.8 765.74 253.68 803.12 250.41"/><polygon class="cls-2" points="762.29 214.38 813.69 231.09 807.54 250.02 821.22 248.83 818.34 215.98 779.49 207.72 781.91 196.36 760.87 198.2 762.29 214.38"/><polygon class="cls-2" points="872.17 234.03 824.02 234.03 825.64 252.54 762.03 258.1 759.92 234.03 734.84 234.03 734.84 302.43 771.8 302.43 781.72 262.64 843.67 278.1 837.66 302.43 872.17 302.43 872.17 234.03"/><path class="cls-2" d="M734.84,339.64c.86,0,1.71,0,2.57,0a121.92,121.92,0,0,1,101.42,54.13h33.34V306.51H734.84Z"/><path class="cls-2" d="M703.09,344.52a121.54,121.54,0,0,1,27.67-4.73V134.36l-91.92,91.91v47.41l60.27,41.79c3,2.42,4,4.33,4,7.93Z"/><polygon class="cls-2" points="872.17 47.11 790.73 47.11 872.17 128.55 872.17 47.11"/><polygon class="cls-2" points="896.32 152.03 896.32 2.78 896.32 0 1032.33 0 1032.33 152.03 896.32 152.03"/><rect class="cls-2" x="1036.42" width="12.76" height="152.03"/><path class="cls-2" d="M1386.51,434.51c-.12-19.47-.88-39-.38-58.45.86-33.43,1.28-66.85,1.64-100.29.19-17.49.41-35,1.12-52.42l-1.13.75a57.19,57.19,0,1,1-35.7-53.59l14.4-14.4H896.32V442.05q26.1-.48,52.21-1.09V419c0-1.3,0-2.6,0-3.9,0-109.93,89.11-199,199-199s199,89.11,199,199v20.22C1359.88,434.78,1373.2,434.56,1386.51,434.51Z"/><path class="cls-2" d="M906.7,433.84a18.2,18.2,0,0,0-2.33,8.06q18.24-.36,36.47-.77a18.27,18.27,0,0,0-2.28-7.29,18.34,18.34,0,0,0,0-18,18.34,18.34,0,0,0,0-18,18.35,18.35,0,0,0,.12-17.79,18.3,18.3,0,1,0-32.09,0,18.32,18.32,0,0,0,.11,17.79,18.34,18.34,0,0,0,0,18,18.34,18.34,0,0,0,0,18Z"/><path class="cls-2" d="M922.63,357.05a14.21,14.21,0,1,0,14.21,14.21A14.21,14.21,0,0,0,922.63,357.05Z"/><path class="cls-2" d="M909.33,383.82a14.21,14.21,0,1,0,26.6,0,18.3,18.3,0,0,1-26.6,0Z"/><path class="cls-2" d="M909.45,401.52a14.21,14.21,0,1,0,27.39,5.32,14,14,0,0,0-1-5.32,18.29,18.29,0,0,1-26.36,0Z"/><circle class="cls-2" cx="963.93" cy="223.53" r="57.21" transform="translate(523.88 1109.81) rotate(-76.65)"/><path class="cls-2" d="M994.68,180.2V234H911.84a53.13,53.13,0,1,0,82.84-53.83Z"/><path class="cls-2" d="M939.9,176.14l50.69,50.69V177.57a53.23,53.23,0,0,0-50.69-1.43Z"/><path class="cls-2" d="M1055.4,169.34a26.26,26.26,0,1,1-26.25,26.26A26.26,26.26,0,0,1,1055.4,169.34Z"/><circle class="cls-2" cx="1107.44" cy="188.53" r="19.19"/><circle class="cls-2" cx="1146.94" cy="183.07" r="13.73" transform="translate(706.74 1257.87) rotate(-76.8)"/><path class="cls-2" d="M1239.08,169.34a26.26,26.26,0,1,1-26.26,26.26A26.26,26.26,0,0,1,1239.08,169.34Z"/><circle class="cls-2" cx="1187.05" cy="188.53" r="19.19"/><circle class="cls-2" cx="1239.08" cy="195.6" r="22.18" transform="translate(-11.58 292.74) rotate(-13.41)"/><path class="cls-2" d="M1187.05,173.42a15.11,15.11,0,1,0,15.1,15.11A15.1,15.1,0,0,0,1187.05,173.42Z"/><path class="cls-2" d="M1146.94,173.42a9.65,9.65,0,1,0,9.64,9.65A9.65,9.65,0,0,0,1146.94,173.42Z"/><path class="cls-2" d="M1107.44,173.42a15.11,15.11,0,1,0,15.1,15.11A15.11,15.11,0,0,0,1107.44,173.42Z"/><circle class="cls-2" cx="1055.4" cy="195.6" r="22.18"/><path class="cls-2" d="M1121.68,293l68.22-68.23a196.89,196.89,0,0,0-68.22-2.92Z"/><path class="cls-2" d="M1053.26,323.57a101,101,0,0,1,102.51,8.19l31.83-31.83h-70V222.39a193.66,193.66,0,0,0-64.33,22Z"/><path class="cls-2" d="M988.39,302.43h60.78V246.7A195.89,195.89,0,0,0,988.39,302.43Z"/><path class="cls-2" d="M1056.12,438.8l5-.08c25-.33,49.91-.27,74.86-.13a18.3,18.3,0,0,1,26.33-23l43.7-43.69H1115.6l37.24-37.24a96.29,96.29,0,0,0-47.29-17,57.22,57.22,0,0,1-97.08,58.63,96.35,96.35,0,0,0-5.81,18.88A74.53,74.53,0,0,1,1056.12,438.8Z"/><path class="cls-2" d="M1112.13,396.52a18.29,18.29,0,1,1-18.29,18.29A18.29,18.29,0,0,1,1112.13,396.52Z"/><path class="cls-2" d="M1112.13,400.6a14.21,14.21,0,1,0,14.21,14.21A14.21,14.21,0,0,0,1112.13,400.6Z"/><path class="cls-2" d="M934.24,286a27.89,27.89,0,1,1-27.89,27.89A27.89,27.89,0,0,1,934.24,286Z"/><path class="cls-2" d="M913.34,302.43h41.79a23.8,23.8,0,0,0-41.79,0Z"/><path class="cls-2" d="M1389.11,218.28c.34-7.43.78-14.85,1.36-22.27l-90,71.29a53.26,53.26,0,0,0,8.74,4.88l-.14-.2Z"/><path class="cls-2" d="M1383.58,226.91l-70,47a53.15,53.15,0,0,0,70-47Z"/><path class="cls-2" d="M1392.24,177.21c.54-4.76,1-9.53,1.5-14.29l-103.47,95.24a52.29,52.29,0,0,0,6.79,6.6l93.87-74.32C1391.32,186,1391.75,181.62,1392.24,177.21Z"/><path class="cls-2" d="M1396.65,131.69,1282.39,246a53.17,53.17,0,0,0,5.33,9l106.61-98.14Q1395.53,144.26,1396.65,131.69Z"/><path class="cls-2" d="M1280.69,241.88l68.21-68.21a53.14,53.14,0,0,0-68.21,68.21Z"/><polygon class="cls-2" points="1269.02 145.61 1144.99 145.61 1144.99 152.03 1262.61 152.03 1269.02 145.61"/><polygon class="cls-2" points="1279.26 135.37 1155.24 135.37 1155.24 141.53 1273.11 141.53 1279.26 135.37"/><polygon class="cls-2" points="1289.49 125.14 1155.24 125.14 1155.24 131.29 1283.18 131.29 1289.49 125.14"/><polygon class="cls-2" points="1155.24 121.06 1293.58 121.06 1330.52 84.11 1155.24 84.11 1155.24 121.06"/><polygon class="cls-2" points="1262.66 0 1134.76 0 1134.76 80.03 1182.64 80.03 1262.66 0"/><polygon class="cls-2" points="1319.09 0 1268.44 0 1188.41 80.03 1239.07 80.03 1319.09 0"/><path class="cls-2" d="M1400.08,97.71,1354.22,152h16.32l26.71-26.71C1398.11,116.11,1399,106.9,1400.08,97.71Z"/><rect class="cls-2" x="1134.76" y="84.11" width="6.15" height="67.92"/><rect class="cls-2" x="1144.99" y="84.11" width="6.16" height="57.42"/><path class="cls-2" d="M1053.26,78.33h34a23.67,23.67,0,1,0,0-47.34h-34Z"/><path class="cls-2" d="M1053.26,140.35h34a23.67,23.67,0,1,0,0-47.34h-34Z"/><circle class="cls-2" cx="963.93" cy="79.95" r="57.21" transform="translate(643.49 992.57) rotate(-75.39)"/><path class="cls-2" d="M1386.51,434.51c-.12-19.47-.88-39-.38-58.45q.22-8.88.4-17.76a18.29,18.29,0,0,0-28.94,21.75,18.32,18.32,0,0,0,.11,17.79,18.34,18.34,0,0,0,0,18,18.34,18.34,0,0,0,0,18q-.3.54-.57,1.11C1366.92,434.68,1376.72,434.55,1386.51,434.51Z"/><path class="cls-2" d="M1386.05,402.24a18.25,18.25,0,0,1-25.6-.72,14.21,14.21,0,0,0,25.77,11.89Q1386.13,407.83,1386.05,402.24Z"/><path class="cls-2" d="M1386,384.72a18.27,18.27,0,0,1-25.66-.9,14.21,14.21,0,0,0,25.65,12Q1386,390.29,1386,384.72Z"/><path class="cls-2" d="M1386.13,376.06c.1-3.68.17-7.36.25-11a14.19,14.19,0,1,0-.29,13.07C1386.11,377.41,1386.11,376.73,1386.13,376.06Z"/><path class="cls-2" d="M1342.58,300.4a57.37,57.37,0,0,1,31.51,34.09,23.81,23.81,0,1,0-31.51-34.09Z"/><path class="cls-2" d="M1370.36,336.22a53.25,53.25,0,0,0-29.8-32.24,23.82,23.82,0,0,0,29.8,32.24Z"/><path class="cls-2" d="M1387.47,302a27.89,27.89,0,1,0-.34,24.44Q1387.32,314.19,1387.47,302Z"/><path class="cls-2" d="M1210,439a65.33,65.33,0,0,1,64.37-54.25h65.76q-1-6.54-2.47-12.93h-63.29a78.25,78.25,0,0,0-77.45,67.16Z"/><path class="cls-2" d="M1125.46,367.84h90.37l-50.32,50.32a18.24,18.24,0,0,1,3.79,20.64l23.5.12a82.37,82.37,0,0,1,72-70.67,57.29,57.29,0,0,1,38.75-70.13,195.16,195.16,0,0,0-109-72.29l-70,70h72.9Z"/><path class="cls-2" d="M1049.17,306.51h-63.6a193.77,193.77,0,0,0-31.84,87.23h34a74,74,0,0,1,10.9.8,100.89,100.89,0,0,1,50.53-68.86Z"/><path class="cls-2" d="M1010.38,372.15a53.14,53.14,0,0,0,90.56-54.69c-1.1,0-2.21,0-3.33,0A96.81,96.81,0,0,0,1010.38,372.15Z"/><path class="cls-2" d="M1130.67,0h-77.41V26.9h34a27.76,27.76,0,0,1,0,55.51h-34v6.52h34a27.76,27.76,0,0,1,0,55.51h-34V152h77.41Z"/><path class="cls-2" d="M987.94,230,936.2,178.21a53.1,53.1,0,0,0-25.4,45.32,54.51,54.51,0,0,0,.39,6.42Z"/><path class="cls-2" d="M956.89,306.51H911.58A23.81,23.81,0,1,0,958,313.84,23.68,23.68,0,0,0,956.89,306.51Z"/><path class="cls-2" d="M990.59,125.91V34a53.12,53.12,0,1,0,0,91.92Z"/><path class="cls-2" d="M994.68,36.62v86.66a53.15,53.15,0,0,0,0-86.66Z"/><path class="cls-2" d="M1306.12,301.64a53.18,53.18,0,0,0-37.19,66.24c1.8-.12,3.62-.18,5.45-.18h62.32A194.26,194.26,0,0,0,1306.12,301.64Z"/><path class="cls-2" d="M1328.82,436.14l3.52-.19a18.1,18.1,0,0,0,1.08-6.14,18.29,18.29,0,0,0-36-4.44,18.31,18.31,0,0,0-17.25,12.79C1296.37,437.73,1312.6,437.09,1328.82,436.14Z"/><path class="cls-2" d="M1328.82,436.14q6.84-.39,13.67-.68V415.07a198.06,198.06,0,0,0-1.75-26.28h-66.36A61.23,61.23,0,0,0,1214.16,439C1252.39,438.94,1290.62,438.37,1328.82,436.14Z"/><polygon class="cls-2" points="1332.54 152.03 1332.54 87.87 1268.38 152.03 1332.54 152.03"/><path class="cls-2" d="M1401.8,83.75c3.71-27.56,8.17-56,3.85-83.75h-80.78l-80,80h91.78v72h12.26L1401,90.31C1401.25,88.13,1401.51,85.94,1401.8,83.75Z"/></svg>